<svg width="33" height="27" viewBox="0 0 33 27" fill="none" xmlns="http://www.w3.org/2000/svg">
<path d="M31.5312 3.09375H25.75V1.07031C25.75 0.911328 25.6199 0.78125 25.4609 0.78125H23.4375C23.2785 0.78125 23.1484 0.911328 23.1484 1.07031V3.09375H17.8008V1.07031C17.8008 0.911328 17.6707 0.78125 17.5117 0.78125H15.4883C15.3293 0.78125 15.1992 0.911328 15.1992 1.07031V3.09375H9.85156V1.07031C9.85156 0.911328 9.72148 0.78125 9.5625 0.78125H7.53906C7.38008 0.78125 7.25 0.911328 7.25 1.07031V3.09375H1.46875C0.829199 3.09375 0.3125 3.61045 0.3125 4.25V25.0625C0.3125 25.7021 0.829199 26.2188 1.46875 26.2188H31.5312C32.1708 26.2188 32.6875 25.7021 32.6875 25.0625V4.25C32.6875 3.61045 32.1708 3.09375 31.5312 3.09375ZM30.0859 23.6172H2.91406V5.69531H7.25V7.71875C7.25 7.87773 7.38008 8.00781 7.53906 8.00781H9.5625C9.72148 8.00781 9.85156 7.87773 9.85156 7.71875V5.69531H15.1992V7.71875C15.1992 7.87773 15.3293 8.00781 15.4883 8.00781H17.5117C17.6707 8.00781 17.8008 7.87773 17.8008 7.71875V5.69531H23.1484V7.71875C23.1484 7.87773 23.2785 8.00781 23.4375 8.00781H25.4609C25.6199 8.00781 25.75 7.87773 25.75 7.71875V5.69531H30.0859V23.6172ZM13.0312 12.9219H6.38281C6.22383 12.9219 6.09375 13.052 6.09375 13.2109V14.9453C6.09375 15.1043 6.22383 15.2344 6.38281 15.2344H13.0312C13.1902 15.2344 13.3203 15.1043 13.3203 14.9453V13.2109C13.3203 13.052 13.1902 12.9219 13.0312 12.9219ZM13.0312 17.8359H6.38281C6.22383 17.8359 6.09375 17.966 6.09375 18.125V19.8594C6.09375 20.0184 6.22383 20.1484 6.38281 20.1484H13.0312C13.1902 20.1484 13.3203 20.0184 13.3203 19.8594V18.125C13.3203 17.966 13.1902 17.8359 13.0312 17.8359ZM24.1674 11.426L20.424 16.6183L18.5162 13.977C18.4078 13.8252 18.2344 13.7385 18.0501 13.7385H16.0664C15.8315 13.7385 15.6942 14.0059 15.8315 14.1974L19.9543 19.9136C20.0075 19.9874 20.0775 20.0476 20.1586 20.0891C20.2396 20.1306 20.3294 20.1522 20.4204 20.1522C20.5115 20.1522 20.6012 20.1306 20.6822 20.0891C20.7633 20.0476 20.8333 19.9874 20.8865 19.9136L26.8484 11.65C26.9857 11.4585 26.8484 11.1911 26.6136 11.1911H24.6299C24.4492 11.1875 24.2758 11.2778 24.1674 11.426Z" fill="black"/>
</svg>
